<svg xmlns="http://www.w3.org/2000/svg" viewBox="0 0 24 24"><defs><style>.cls-1{fill:none;}.cls-2{fill:#005aab;}</style></defs><title>ic_edit</title><g id="Layer_2" data-name="Layer 2"><g id="Layer_1-2" data-name="Layer 1"><rect class="cls-1" width="24" height="24"/><path class="cls-2" d="M20.34,5.25,18.75,3.66a2.25,2.25,0,0,0-3.18,0L5.91,13.32A8.24,8.24,0,0,0,4.12,16L3,21l5-1.12a27.68,27.68,0,0,0,2.71-1.79l9.66-9.66A2.25,2.25,0,0,0,20.34,5.25ZM4.49,19.51l.73-3.23a.59.59,0,0,0,0-.14l0,0L7.8,18.66l-.26.16Zm5.4-2.22a11.25,11.25,0,0,1-1.11.76L5.87,15.14a12.07,12.07,0,0,1,.83-1L14,6.84,17.16,10Zm9.66-9.65L18,9.23,14.77,6.05l1.59-1.6a1.16,1.16,0,0,1,1.6,0l1.59,1.6a1.1,1.1,0,0,1,.32.79A1.14,1.14,0,0,1,19.55,7.64Z"/></g></g></svg>