<?xml version="1.0" encoding="utf-8"?>
<!-- Generator: Adobe Illustrator 22.1.0, SVG Export Plug-In . SVG Version: 6.00 Build 0)  -->
<svg version="1.1" id="Layer_1" xmlns="http://www.w3.org/2000/svg" xmlns:xlink="http://www.w3.org/1999/xlink" x="0px" y="0px"
	 viewBox="0 0 38 38" style="enable-background:new 0 0 38 38;" xml:space="preserve">
<style type="text/css">
	.st0{fill:#17A8B5;}
	.st1{opacity:0.8;enable-background:new    ;}
	.st2{fill:#FFFFFF;}
</style>
<title>ic_financeid</title>
<g id="Layer_2_1_">
	<g id="Capa_1">
		<circle id="Ellipse_1_copy_3" class="st0" cx="19" cy="19" r="19"/>
		<g class="st1">
			<path class="st2" d="M27,11.4c0.4,0,0.8,0.2,1.1,0.5c0.3,0.3,0.5,0.7,0.5,1.1v12.2c0,0.4-0.2,0.8-0.5,1.1s-0.7,0.5-1.1,0.5H11
				c-0.4,0-0.8-0.2-1.1-0.5c-0.3-0.3-0.5-0.7-0.5-1.1V13c0-0.4,0.2-0.8,0.5-1.1c0.3-0.3,0.7-0.5,1.1-0.5H27z M11,12.7
				c-0.1,0-0.2,0-0.2,0.1c-0.1,0.1-0.1,0.1-0.1,0.2v2.3h16.7V13c0-0.1,0-0.2-0.1-0.2s-0.1-0.1-0.2-0.1H11z M27,25.5
				c0.1,0,0.2,0,0.2-0.1c0.1-0.1,0.1-0.1,0.1-0.2v-6.1H10.6v6.1c0,0.1,0,0.2,0.1,0.2c0.1,0.1,0.1,0.1,0.2,0.1H27z M11.9,24.2v-1.3
				h2.6v1.3H11.9z M15.8,24.2v-1.3h3.9v1.3H15.8z"/>
		</g>
	</g>
</g>
</svg>
