<svg xmlns="http://www.w3.org/2000/svg" viewBox="0 0 24 24"><defs><style>.cls-1{fill:none;}.cls-2{fill:#005aab;}</style></defs><title>ic_invoice</title><g id="Layer_2" data-name="Layer 2"><g id="Layer_1-2" data-name="Layer 1"><rect class="cls-1" width="24" height="24"/><path class="cls-2" d="M19.32,2H4.68a.5.5,0,0,0-.5.5v19a.51.51,0,0,0,.3.46A.51.51,0,0,0,5,21.87l1.73-1.6a.49.49,0,0,1,.67,0l1.13,1a1.5,1.5,0,0,0,2,0l1.12-1a.49.49,0,0,1,.66,0l1.12,1a1.49,1.49,0,0,0,2,0l1.13-1a.49.49,0,0,1,.67,0L19,21.87a.51.51,0,0,0,.54.09.51.51,0,0,0,.3-.46V2.5A.5.5,0,0,0,19.32,2Zm-.5,18.37-.89-.83a1.5,1.5,0,0,0-2,0l-1.14,1a.49.49,0,0,1-.66,0l-1.12-1a1.5,1.5,0,0,0-2,0l-1.12,1a.49.49,0,0,1-.66,0l-1.14-1a1.5,1.5,0,0,0-2,0l-.89.83V3H18.82V20.37Z"/><path class="cls-2" d="M19.32,22.25a.76.76,0,0,1-.51-.2l-1.73-1.6a.26.26,0,0,0-.33,0l-1.14,1a1.74,1.74,0,0,1-2.33,0l-1.11-1a.25.25,0,0,0-.34,0l-1.11,1a1.74,1.74,0,0,1-2.33,0l-1.14-1a.26.26,0,0,0-.33,0l-1.73,1.6a.75.75,0,0,1-1.26-.55V2.5a.76.76,0,0,1,.75-.75H19.32a.76.76,0,0,1,.75.75v19a.76.76,0,0,1-.45.69A.8.8,0,0,1,19.32,22.25Zm-2.41-2.36a.7.7,0,0,1,.51.2l1.73,1.59a.25.25,0,0,0,.27.05.25.25,0,0,0,.15-.23V2.5a.25.25,0,0,0-.25-.25H4.68a.25.25,0,0,0-.25.25v19a.25.25,0,0,0,.15.23.25.25,0,0,0,.27-.05l1.73-1.59a.73.73,0,0,1,1,0l1.14,1a1.23,1.23,0,0,0,1.66,0l1.12-1a.74.74,0,0,1,1,0l1.12,1a1.23,1.23,0,0,0,1.66,0l1.14-1A.72.72,0,0,1,16.91,19.89Zm2.16,1.05-1.31-1.22a1.23,1.23,0,0,0-1.67,0l-1.14,1a.74.74,0,0,1-1,0l-1.12-1a1.23,1.23,0,0,0-1.66,0l-1.12,1a.74.74,0,0,1-1,0l-1.14-1a1.23,1.23,0,0,0-1.67,0L4.93,20.94V2.75H19.07ZM12,18.89a1.75,1.75,0,0,1,1.17.45l1.12,1a.26.26,0,0,0,.33,0l1.13-1a1.73,1.73,0,0,1,2.35,0l.47.43V3.25H5.43V19.79l.48-.43a1.71,1.71,0,0,1,2.34,0l1.13,1a.26.26,0,0,0,.33,0l1.12-1A1.75,1.75,0,0,1,12,18.89Z"/><path class="cls-2" d="M8.67,9.75h6.39a.5.5,0,1,0,0-1H8.67a.5.5,0,1,0,0,1Z"/><path class="cls-2" d="M15.06,10H8.67a.75.75,0,1,1,0-1.49h6.39a.75.75,0,1,1,0,1.49ZM8.67,9a.25.25,0,1,0,0,.49h6.39a.25.25,0,1,0,0-.49Z"/><path class="cls-2" d="M8.67,13.21h6.39a.5.5,0,1,0,0-1H8.67a.5.5,0,1,0,0,1Z"/><path class="cls-2" d="M15.06,13.46H8.67a.75.75,0,1,1,0-1.49h6.39a.75.75,0,1,1,0,1.49Zm-6.39-1a.25.25,0,1,0,0,.49h6.39a.25.25,0,1,0,0-.49Z"/></g></g></svg>