<svg xmlns="http://www.w3.org/2000/svg" viewBox="0 0 16 16"><defs><style>.cls-1{fill:none;}.cls-2{fill:#fff;}</style></defs><title>ic_logoout</title><g id="Layer_2" data-name="Layer 2"><g id="Capa_1" data-name="Capa 1"><rect class="cls-1" width="16" height="16"/><path class="cls-2" d="M8,14.23H2.37a.62.62,0,0,1-.62-.62V2.39a.62.62,0,0,1,.62-.62H8A.63.63,0,0,0,8,.52H2.37A1.87,1.87,0,0,0,.5,2.39V13.61a1.87,1.87,0,0,0,1.87,1.87H8a.63.63,0,0,0,0-1.25Z"/><path class="cls-2" d="M15.31,7.56,11.53,3.82a.63.63,0,0,0-.88.89l2.71,2.67H6.11a.62.62,0,1,0,0,1.24h7.25l-2.71,2.67a.63.63,0,0,0,0,.88.59.59,0,0,0,.44.19.62.62,0,0,0,.44-.18l3.78-3.74a.6.6,0,0,0,0-.88Z"/></g></g></svg>