<svg xmlns="http://www.w3.org/2000/svg" viewBox="0 0 36 36"><defs><style>.cls-1{fill:#17a8b5;}.cls-2{fill:#fff;}</style></defs><title>ic_nearshore</title><g id="Layer_2" data-name="Layer 2"><g id="Layer_1-2" data-name="Layer 1"><circle class="cls-1" cx="18" cy="18" r="18"/><path class="cls-2" d="M23.87,17.53a5.11,5.11,0,0,0-5.14,5.06c0,1.84,2,4.41,3.42,5.94H17.27v-4.4a.74.74,0,0,0-.74-.73H12.87V20c1-1,4.4-4.6,4.4-7A5.14,5.14,0,0,0,7,13.05c0,2.39,3.43,6,4.4,7v4.09a.74.74,0,0,0,.73.74H15.8v4.4a.73.73,0,0,0,.73.73h7.34a.71.71,0,0,0,.28-.06l.07,0a.57.57,0,0,0,.16-.11c.47-.46,4.62-4.58,4.62-7.2A5.1,5.1,0,0,0,23.87,17.53ZM9.93,13.05a2.2,2.2,0,1,1,2.2,2.2A2.21,2.21,0,0,1,9.93,13.05ZM23.87,24.79a2.2,2.2,0,1,1,2.2-2.2A2.2,2.2,0,0,1,23.87,24.79Z"/></g></g></svg>