<svg xmlns="http://www.w3.org/2000/svg" viewBox="0 0 36 36"><defs><style>.cls-1{fill:#17a8b5;}.cls-2{fill:#fff;}</style></defs><title>ic_onsite</title><g id="Layer_2" data-name="Layer 2"><g id="Layer_1-2" data-name="Layer 1"><circle class="cls-1" cx="18" cy="18" r="18"/><path class="cls-2" d="M11.52,19.67l6.21,9.19a.33.33,0,0,0,.54,0l6.21-9.19c.18-.28.32-.48.32-.48h0A7.85,7.85,0,0,0,26,14.71,8,8,0,0,0,10,15a7.92,7.92,0,0,0,1.2,4.2ZM18,9.35A5.64,5.64,0,1,1,12.36,15,5.63,5.63,0,0,1,18,9.35Z"/><path class="cls-2" d="M14.41,13.1a.49.49,0,0,0,.12.13l1.89,1.37L17,17.81a.53.53,0,0,0,.19.33l.33.3a.15.15,0,0,0,.24-.11l0-2.78,1.88,1.36a1.3,1.3,0,0,0,1.46,0l.72-.48a.16.16,0,0,0,0-.24l-.08-.09a.65.65,0,0,0-.59-.2l-.83.16-3.85-3.27a2,2,0,0,0-1.34-.5,1.71,1.71,0,0,0-.49.07.47.47,0,0,0-.26.69Z"/><path class="cls-2" d="M18.88,14.09a.6.6,0,0,0,.42.15l2-.1a.11.11,0,0,0,.05-.2l-.3-.23a.53.53,0,0,0-.3-.09l-2.44-.27a.1.1,0,0,0-.08.18Z"/></g></g></svg>