<?xml version="1.0" encoding="utf-8"?>
<!-- Generator: Adobe Illustrator 22.1.0, SVG Export Plug-In . SVG Version: 6.00 Build 0)  -->
<svg version="1.1" id="Layer_1" xmlns="http://www.w3.org/2000/svg" xmlns:xlink="http://www.w3.org/1999/xlink" x="0px" y="0px"
	 viewBox="0 0 38 38" style="enable-background:new 0 0 38 38;" xml:space="preserve">
<style type="text/css">
	.st0{fill:#4F6EE2;}
	.st1{opacity:0.8;enable-background:new    ;}
	.st2{fill:#FFFFFF;}
</style>
<title>ic_projecttype</title>
<g id="Layer_2_1_">
	<g id="Capa_1">
		<circle id="Ellipse_1_copy_3" class="st0" cx="19" cy="19" r="19"/>
		<g class="st1">
			<path class="st2" d="M28.6,12.7v10.9c0,0.4-0.2,0.8-0.5,1.1s-0.7,0.5-1.1,0.5h-5.5c0,0.2,0.1,0.5,0.2,0.8
				c0.1,0.3,0.2,0.5,0.3,0.7c0.1,0.2,0.2,0.3,0.2,0.4c0,0.2-0.1,0.3-0.2,0.5s-0.3,0.2-0.5,0.2h-5.1c-0.2,0-0.3-0.1-0.5-0.2
				c-0.1-0.1-0.2-0.3-0.2-0.5c0-0.1,0.1-0.2,0.2-0.4c0.1-0.2,0.2-0.4,0.3-0.7s0.2-0.5,0.2-0.8H11c-0.4,0-0.8-0.2-1.1-0.5
				c-0.3-0.3-0.5-0.7-0.5-1.1V12.7c0-0.4,0.2-0.8,0.5-1.1c0.3-0.3,0.7-0.5,1.1-0.5H27c0.4,0,0.8,0.2,1.1,0.5
				C28.5,11.9,28.6,12.3,28.6,12.7z M27.4,21.1v-8.4c0-0.1,0-0.2-0.1-0.2c-0.1-0.1-0.1-0.1-0.2-0.1H11c-0.1,0-0.2,0-0.2,0.1
				c-0.1,0.1-0.1,0.1-0.1,0.2v8.4c0,0.1,0,0.2,0.1,0.2c0.1,0.1,0.1,0.1,0.2,0.1H27c0.1,0,0.2,0,0.2-0.1
				C27.3,21.2,27.4,21.1,27.4,21.1z"/>
		</g>
	</g>
</g>
</svg>
