<svg xmlns="http://www.w3.org/2000/svg" viewBox="0 0 38 38"><defs><style>.cls-1{fill:#4f6ee2;}.cls-2{opacity:0.8;}.cls-3{fill:#fff;}</style></defs><title>ic_projectname</title><g id="Layer_2" data-name="Layer 2"><g id="Capa_1" data-name="Capa 1"><circle id="Ellipse_1_copy_3" data-name="Ellipse 1 copy 3" class="cls-1" cx="19" cy="19" r="19"/><g class="cls-2"><path class="cls-3" d="M20,20.92v-.46a1,1,0,0,0-2,0v.46a1,1,0,0,0,2,0Z"/><path class="cls-3" d="M20.71,21.48a1.78,1.78,0,0,1-3.42,0h-7a2.81,2.81,0,0,1-1.23-.28v4.65a1.65,1.65,0,0,0,1.65,1.65H27.29a1.65,1.65,0,0,0,1.65-1.65V21.2a2.82,2.82,0,0,1-1.23.29Z"/><path class="cls-3" d="M27.64,13.14h-4a3.14,3.14,0,0,0-3.09-2.64H17.41a3.14,3.14,0,0,0-3.09,2.64h-4a1.69,1.69,0,0,0-1.72,1.65V18.6a1.65,1.65,0,0,0,1.65,1.65h6.92A1.78,1.78,0,0,1,17.76,19l0,0,.23-.18.09,0,.2-.11.18-.05.15-.05a2.17,2.17,0,0,1,.72,0l.15.05.18.05.2.11.09,0,.23.18,0,0a1.78,1.78,0,0,1,.55,1.21h6.92a1.65,1.65,0,0,0,1.65-1.65V14.79A1.69,1.69,0,0,0,27.64,13.14Zm-11.73,0a1.6,1.6,0,0,1,1.5-1.1h3.18a1.6,1.6,0,0,1,1.5,1.1Z"/></g></g></g></svg>