<?xml version="1.0" encoding="utf-8"?>
<!-- Generator: Adobe Illustrator 22.1.0, SVG Export Plug-In . SVG Version: 6.00 Build 0)  -->
<svg version="1.1" id="Layer_1" xmlns="http://www.w3.org/2000/svg" xmlns:xlink="http://www.w3.org/1999/xlink" x="0px" y="0px"
	 viewBox="0 0 38 38" style="enable-background:new 0 0 38 38;" xml:space="preserve">
<style type="text/css">
	.st0{fill:#17A8B5;}
	.st1{opacity:0.8;enable-background:new    ;}
	.st2{fill:#FFFFFF;}
</style>
<title>ic_planarena</title>
<g id="Layer_2_1_">
	<g id="Capa_1">
		<circle id="Ellipse_1_copy_3" class="st0" cx="19" cy="19" r="19"/>
		<g class="st1">
			<path class="st2" d="M27.1,16.1v1.7h-8.6c-0.6,0-1.3,0.2-2,0.5c-0.7,0.3-1.3,0.7-1.7,1.2l-3.5,4.1l-0.1,0.1c0,0,0-0.1,0-0.1
				c0-0.1,0-0.1,0-0.1v-9.9c0-0.6,0.2-1.2,0.7-1.6c0.5-0.5,1-0.7,1.6-0.7h3.3c0.6,0,1.2,0.2,1.6,0.7s0.7,1,0.7,1.6v0.3h5.6
				c0.6,0,1.2,0.2,1.6,0.7S27.1,15.5,27.1,16.1z M30.7,19.6c0,0.2-0.1,0.4-0.3,0.7l-3.5,4.1c-0.3,0.4-0.7,0.6-1.2,0.9
				s-1,0.4-1.5,0.4H13c-0.2,0-0.4,0-0.6-0.1c-0.2-0.1-0.3-0.2-0.3-0.4c0-0.2,0.1-0.4,0.3-0.7l3.5-4.1c0.3-0.4,0.7-0.6,1.2-0.9
				s1-0.4,1.5-0.4h11.2c0.2,0,0.4,0,0.6,0.1C30.6,19.3,30.7,19.4,30.7,19.6z"/>
		</g>
	</g>
</g>
</svg>
