<svg xmlns="http://www.w3.org/2000/svg" viewBox="0 0 24 24"><defs><style>.cls-1{fill:none;}.cls-2{fill:#005aab;}</style></defs><title>ic_revenue</title><g id="Layer_2" data-name="Layer 2"><g id="Layer_1-2" data-name="Layer 1"><rect class="cls-1" width="24" height="24"/><g id="layer1"><g id="path5454-43-82-9-5-9"><path class="cls-2" d="M.44,4V20H23.56V4Zm.89.89H22.67V19.11H1.33Zm3.56.89v.44A2.21,2.21,0,0,1,2.67,8.44H2.22v7.12h.45a2.21,2.21,0,0,1,2.22,2.22v.44H19.11v-.44a2.21,2.21,0,0,1,2.22-2.22h.45V8.44h-.45a2.21,2.21,0,0,1-2.22-2.22V5.78Zm.8.89H18.31a3,3,0,0,0,2.58,2.57v5.52a3,3,0,0,0-2.58,2.57H5.69a3,3,0,0,0-2.58-2.57V9.24A3,3,0,0,0,5.69,6.67Zm.09,4.44a.89.89,0,1,0,.89.89A.89.89,0,0,0,5.78,11.11Zm12.44,0a.89.89,0,1,0,.89.89A.9.9,0,0,0,18.22,11.11Z"/><path class="cls-2" d="M23.68,20.13H.32V3.88H23.68ZM.57,19.88H23.43V4.13H.57Zm22.22-.64H1.21V4.76H22.79ZM1.46,19H22.54V5H1.46Zm17.78-.64H4.76v-.57a2.1,2.1,0,0,0-2.09-2.1H2.1V8.32h.57a2.1,2.1,0,0,0,2.09-2.1V5.65H19.24v.57a2.1,2.1,0,0,0,2.09,2.1h.57v7.36h-.57a2.1,2.1,0,0,0-2.09,2.1ZM5,18.1H19v-.32a2.35,2.35,0,0,1,2.34-2.35h.32V8.57h-.32A2.35,2.35,0,0,1,19,6.22V5.9H5v.32A2.35,2.35,0,0,1,2.67,8.57H2.35v6.86h.32A2.35,2.35,0,0,1,5,17.78Zm13.41-.64H5.58l0-.11a2.92,2.92,0,0,0-2.47-2.47l-.1,0V9.14l.1,0A2.92,2.92,0,0,0,5.56,6.65l0-.11H18.42l0,.11a2.92,2.92,0,0,0,2.47,2.47l.1,0v5.72l-.1,0a2.92,2.92,0,0,0-2.47,2.47ZM5.79,17.21H18.21a3.17,3.17,0,0,1,2.55-2.56V9.35a3.17,3.17,0,0,1-2.55-2.56H5.79A3.17,3.17,0,0,1,3.24,9.35v5.3A3.17,3.17,0,0,1,5.79,17.21ZM18.22,13a1,1,0,1,1,1-1A1,1,0,0,1,18.22,13Zm0-1.77A.76.76,0,1,0,19,12,.77.77,0,0,0,18.22,11.24ZM5.78,13a1,1,0,1,1,1-1A1,1,0,0,1,5.78,13Zm0-1.77a.76.76,0,1,0,.76.76A.77.77,0,0,0,5.78,11.24Z"/></g></g><path class="cls-2" d="M11.83,14.84a2.73,2.73,0,1,1,2.73-2.72A2.72,2.72,0,0,1,11.83,14.84Zm0-4.56a1.84,1.84,0,1,0,1.84,1.84A1.86,1.86,0,0,0,11.83,10.28Z"/><path class="cls-2" d="M11.83,15a2.86,2.86,0,1,1,2.86-2.85A2.86,2.86,0,0,1,11.83,15Zm0-5.46a2.61,2.61,0,1,0,2.61,2.61A2.61,2.61,0,0,0,11.83,9.51Zm0,4.57a2,2,0,1,1,2-2A2,2,0,0,1,11.83,14.08Zm0-3.68a1.72,1.72,0,1,0,1.72,1.72A1.74,1.74,0,0,0,11.83,10.4Z"/></g></g></svg>