<svg xmlns="http://www.w3.org/2000/svg" viewBox="0 0 16 16"><defs><style>.cls-1{fill:#fff;}.cls-2{fill:#3b4145;}.cls-3{fill:#525a61;}.cls-4{fill:#ffb751;}.cls-5{fill:#ffd764;}</style></defs><title>ic_warning</title><g id="Layer_2" data-name="Layer 2"><g id="Layer_1-2" data-name="Layer 1"><rect class="cls-1" width="16" height="16"/><path class="cls-2" d="M10,2.17l5.39,9.34a2.29,2.29,0,0,1,.31,1.16A2.33,2.33,0,0,1,13.39,15H8L6.14,8,8,1A2.33,2.33,0,0,1,10,2.17Z"/><path class="cls-3" d="M6,2.17.59,11.51a2.29,2.29,0,0,0-.31,1.16A2.33,2.33,0,0,0,2.61,15H8V1A2.33,2.33,0,0,0,6,2.17Z"/><path class="cls-4" d="M14.6,12,9.21,2.63A1.42,1.42,0,0,0,8,1.93l4.61,12.14h.74a1.4,1.4,0,0,0,1.4-1.4A1.32,1.32,0,0,0,14.6,12Z"/><path class="cls-5" d="M13.7,12a1.63,1.63,0,0,1,.16.7,1.32,1.32,0,0,1-1.21,1.4h-10a1.4,1.4,0,0,1-1.4-1.4A1.32,1.32,0,0,1,1.4,12L6.79,2.63A1.4,1.4,0,0,1,8,1.93H8a1.22,1.22,0,0,1,1,.7Z"/><path class="cls-2" d="M8,11v1.55a.77.77,0,0,0,.78-.77A.78.78,0,0,0,8,11Z"/><path class="cls-3" d="M8,11c.09,0,.16.35.16.78s-.07.77-.16.77a.77.77,0,0,1-.78-.77A.78.78,0,0,1,8,11Z"/><path class="cls-2" d="M8,4.28V10a.78.78,0,0,0,.78-.78V5.06A.78.78,0,0,0,8,4.28Z"/><path class="cls-3" d="M8,4.28c.09,0,.16.35.16.78V9.25c0,.43-.07.78-.16.78a.78.78,0,0,1-.78-.78V5.06A.78.78,0,0,1,8,4.28Z"/></g></g></svg>